<svg width="20" height="21" fill="none" xmlns="http://www.w3.org/2000/svg"><path d="M14.167 18.208H5.834c-3.042 0-4.792-1.75-4.792-4.791V7.583c0-3.041 1.75-4.791 4.792-4.791h8.333c3.042 0 4.792 1.75 4.792 4.791v5.834c0 3.041-1.75 4.791-4.792 4.791ZM5.834 4.042c-2.384 0-3.542 1.158-3.542 3.541v5.834c0 2.383 1.158 3.541 3.542 3.541h8.333c2.383 0 3.542-1.158 3.542-3.541V7.583c0-2.383-1.159-3.541-3.542-3.541H5.834Z" fill="#fff"/><path d="M10 11.225c-.7 0-1.408-.217-1.95-.658L5.442 8.483a.623.623 0 0 1 .775-.975l2.608 2.084c.633.508 1.708.508 2.342 0l2.608-2.084a.615.615 0 0 1 .875.1.615.615 0 0 1-.1.875l-2.608 2.084c-.534.441-1.242.658-1.942.658Z" fill="#fff"/></svg>