<svg width="24" height="24" fill="none" xmlns="http://www.w3.org/2000/svg"><path d="M12 14.25a2.25 2.25 0 1 0 0-4.5 2.25 2.25 0 0 0 0 4.5Z" fill="#1C637F"/><path fill-rule="evenodd" clip-rule="evenodd" d="M12.3 6h-.6c-1.285 0-2.158.001-2.833.056-.658.054-.994.151-1.229.271a3 3 0 0 0-1.311 1.311c-.12.235-.217.57-.27 1.229C6 9.542 6 10.415 6 11.7v.6c0 1.285.001 2.158.056 2.833.054.658.151.994.271 1.229a3 3 0 0 0 1.311 1.311c.235.12.57.217 1.229.27C9.542 18 10.415 18 11.7 18h.6c1.285 0 2.158-.001 2.833-.056.658-.054.994-.151 1.229-.271a3 3 0 0 0 1.311-1.311c.12-.235.217-.57.27-1.229C18 14.458 18 13.585 18 12.3v-.6c0-1.285-.001-2.158-.056-2.833-.054-.658-.151-.994-.271-1.229a3 3 0 0 0-1.311-1.311c-.235-.12-.57-.217-1.229-.27C14.458 6 13.585 6 12.3 6Zm4.95 1.875a1.125 1.125 0 1 1-2.25 0 1.125 1.125 0 0 1 2.25 0ZM12 15.75a3.75 3.75 0 1 0 0-7.5 3.75 3.75 0 0 0 0 7.5Z" fill="#1C637F"/><path fill-rule="evenodd" clip-rule="evenodd" d="M1.99 3.957C1.5 4.92 1.5 6.18 1.5 8.7v6.6c0 2.52 0 3.78.49 4.743a4.5 4.5 0 0 0 1.967 1.966c.963.491 2.223.491 4.743.491h6.6c2.52 0 3.78 0 4.743-.49a4.5 4.5 0 0 0 1.966-1.967c.491-.963.491-2.223.491-4.743V8.7c0-2.52 0-3.78-.49-4.743a4.5 4.5 0 0 0-1.967-1.967C19.08 1.5 17.82 1.5 15.3 1.5H8.7c-2.52 0-3.78 0-4.743.49A4.5 4.5 0 0 0 1.99 3.957Zm3 3C4.5 7.92 4.5 9.18 4.5 11.7v.6c0 2.52 0 3.78.49 4.743a4.5 4.5 0 0 0 1.967 1.966c.963.491 2.223.491 4.743.491h.6c2.52 0 3.78 0 4.743-.49a4.5 4.5 0 0 0 1.966-1.967c.491-.963.491-2.223.491-4.743v-.6c0-2.52 0-3.78-.49-4.743a4.5 4.5 0 0 0-1.967-1.967C16.08 4.5 14.82 4.5 12.3 4.5h-.6c-2.52 0-3.78 0-4.743.49A4.5 4.5 0 0 0 4.99 6.957Z" fill="#1C637F"/></svg>