<svg width="20" height="21" fill="none" xmlns="http://www.w3.org/2000/svg"><path d="M14.542 19.458c-.942 0-1.933-.225-2.958-.658-1-.425-2.009-1.008-2.992-1.717a26.016 26.016 0 0 1-2.808-2.391 24.889 24.889 0 0 1-2.392-2.8c-.717-1-1.292-2-1.7-2.967-.433-1.033-.65-2.033-.65-2.975 0-.65.117-1.267.342-1.842A4.45 4.45 0 0 1 2.5 2.492c.642-.634 1.375-.95 2.159-.95.325 0 .658.075.941.208.325.15.6.375.8.675L8.334 5.15c.175.242.308.475.4.708.108.25.166.5.166.742 0 .317-.091.625-.266.917a3.334 3.334 0 0 1-.559.708l-.566.592a.324.324 0 0 0 .025.058c.1.175.3.475.683.925.408.467.792.892 1.175 1.283.492.484.9.867 1.283 1.184.475.4.784.6.967.691l-.017.042.609-.6a3.11 3.11 0 0 1 .75-.575c.458-.283 1.041-.333 1.625-.092.216.092.45.217.7.392l2.766 1.967c.309.208.534.475.667.791.125.317.183.609.183.9 0 .4-.091.8-.266 1.175-.175.375-.392.7-.667 1-.475.525-.992.9-1.592 1.142a4.92 4.92 0 0 1-1.858.358ZM4.659 2.792c-.459 0-.884.2-1.292.6-.383.358-.65.75-.817 1.175a3.646 3.646 0 0 0-.258 1.383c0 .775.183 1.617.55 2.483.375.884.9 1.8 1.567 2.717a23.064 23.064 0 0 0 2.258 2.65 23.464 23.464 0 0 0 2.658 2.267 13.58 13.58 0 0 0 2.742 1.575c1.425.608 2.758.75 3.858.291.425-.175.8-.441 1.142-.825a2.7 2.7 0 0 0 .467-.7c.1-.208.15-.425.15-.641a.994.994 0 0 0-.092-.417.63.63 0 0 0-.233-.25l-2.767-1.967a2.388 2.388 0 0 0-.458-.258c-.184-.075-.259-.15-.542.025a1.896 1.896 0 0 0-.483.375l-.634.625a1.188 1.188 0 0 1-1.208.25l-.225-.1c-.342-.183-.742-.467-1.183-.842-.4-.341-.834-.741-1.359-1.258a29.157 29.157 0 0 1-1.24-1.35c-.392-.458-.675-.85-.85-1.175l-.1-.25a1.56 1.56 0 0 1-.067-.417c0-.3.108-.566.317-.775l.625-.65c.166-.166.291-.325.375-.466a.534.534 0 0 0 .091-.284.775.775 0 0 0-.066-.266 2.39 2.39 0 0 0-.267-.442L5.384 3.142a.768.768 0 0 0-.309-.259 1.044 1.044 0 0 0-.416-.091Zm6.966 10.216-.133.567.225-.583c-.042-.009-.075 0-.092.016Z" fill="#fff"/></svg>