<svg width="32" height="32" fill="none" xmlns="http://www.w3.org/2000/svg"><path d="M14.336 22.48v2.707c0 2.293-2.134 4.147-4.76 4.147-2.627 0-4.774-1.854-4.774-4.147V22.48c0 2.294 2.134 3.92 4.774 3.92 2.626 0 4.76-1.64 4.76-3.92Z" stroke="#1E6080" stroke-width="1.5" stroke-linecap="round" stroke-linejoin="round"/><path d="M14.333 18.813a3.5 3.5 0 0 1-.506 1.814c-.787 1.293-2.4 2.106-4.267 2.106-1.867 0-3.48-.826-4.267-2.106a3.497 3.497 0 0 1-.506-1.814c0-1.146.533-2.173 1.386-2.92.867-.76 2.054-1.213 3.374-1.213 1.32 0 2.506.467 3.373 1.213.88.734 1.413 1.774 1.413 2.92Z" stroke="#1E6080" stroke-width="1.5" stroke-linecap="round" stroke-linejoin="round"/><path d="M14.336 18.813v3.667c0 2.293-2.134 3.92-4.76 3.92-2.627 0-4.774-1.64-4.774-3.92v-3.667c0-2.293 2.134-4.146 4.774-4.146 1.32 0 2.506.466 3.373 1.213.853.747 1.387 1.787 1.387 2.933Zm14.998-4.186v2.746c0 .734-.587 1.334-1.334 1.36h-2.613c-1.44 0-2.76-1.053-2.88-2.493-.08-.84.24-1.627.8-2.173a2.657 2.657 0 0 1 1.92-.8H28a1.369 1.369 0 0 1 1.334 1.36Z" stroke="#1E6080" stroke-width="1.5" stroke-linecap="round" stroke-linejoin="round"/><path d="M2.667 14v-2.667c0-3.626 2.186-6.16 5.586-6.586.347-.054.707-.08 1.08-.08h12c.347 0 .68.013 1 .066 3.44.4 5.667 2.947 5.667 6.6v1.934h-2.773c-.747 0-1.427.293-1.92.8a2.678 2.678 0 0 0-.8 2.173c.12 1.44 1.44 2.493 2.88 2.493H28v1.934c0 4-2.667 6.666-6.667 6.666H18" stroke="#1E6080" stroke-width="1.5" stroke-linecap="round" stroke-linejoin="round"/></svg>