<svg width="24" height="18" fill="none" xmlns="http://www.w3.org/2000/svg"><path d="M23.33 3.094c-.222-1.237-1.279-2.138-2.506-2.42C18.99.282 15.591 0 11.915 0 8.241 0 4.79.281 2.952.675 1.727.955.668 1.8.446 3.094.222 4.5 0 6.469 0 9c0 2.531.222 4.5.5 5.906.224 1.237 1.281 2.138 2.506 2.42 1.949.393 5.29.674 8.966.674 3.676 0 7.017-.281 8.966-.675 1.224-.28 2.281-1.125 2.505-2.419.222-1.406.5-3.432.557-5.906-.113-2.531-.392-4.5-.67-5.906ZM8.91 12.938V5.061L15.701 9l-6.793 3.938Z" fill="#1C637F"/></svg>