<svg width="20" height="20" fill="none" xmlns="http://www.w3.org/2000/svg"><path d="M12.5 18.958h-5c-4.525 0-6.458-1.933-6.458-6.458v-5c0-4.525 1.933-6.458 6.458-6.458h4.167a.63.63 0 0 1 .625.625.63.63 0 0 1-.625.625H7.5c-3.841 0-5.208 1.366-5.208 5.208v5c0 3.842 1.367 5.208 5.208 5.208h5c3.842 0 5.209-1.366 5.209-5.208V8.333a.63.63 0 0 1 .625-.625.63.63 0 0 1 .625.625V12.5c0 4.525-1.934 6.458-6.459 6.458Z" fill="#fff"/><path d="M18.334 8.958H15c-2.85 0-3.958-1.108-3.958-3.958V1.667c0-.25.15-.484.383-.575a.63.63 0 0 1 .684.133l6.666 6.667a.626.626 0 0 1-.442 1.067Zm-6.042-5.783V5c0 2.15.558 2.708 2.708 2.708h1.825l-4.533-4.533Zm-1.459 8.283h-5a.63.63 0 0 1-.625-.625.63.63 0 0 1 .625-.625h5a.63.63 0 0 1 .625.625.63.63 0 0 1-.625.625Zm-1.667 3.334H5.833a.63.63 0 0 1-.625-.625.63.63 0 0 1 .625-.625h3.333a.63.63 0 0 1 .625.625.63.63 0 0 1-.625.625Z" fill="#fff"/></svg>