<svg width="40" height="40" fill="none" xmlns="http://www.w3.org/2000/svg"><path opacity=".4" d="M26.2 3.333H13.8c-.633 0-1.166.534-1.166 1.167s.533 1.167 1.166 1.167h5.434l2.333 3.1c.517.683.584.783 1.55.783h6.2c.634 0 1.25.083 1.85.25.067.3.1.6.1.917v.583c0 .633.534 1.167 1.167 1.167S33.6 11.933 33.6 11.3v-.6c-.033-4.067-3.333-7.367-7.4-7.367Z" fill="#A5C426"/><path d="M33.566 10.9a6.966 6.966 0 0 0-2.416-1.117 6.792 6.792 0 0 0-1.85-.25h-6.2c-.967 0-1.034-.1-1.55-.783l-2.334-3.1c-1.083-1.433-1.933-2.317-4.65-2.317H10.7A7.369 7.369 0 0 0 3.333 10.7v18.6a7.37 7.37 0 0 0 7.367 7.367h18.6c4.066 0 7.366-3.3 7.366-7.367V16.9a7.318 7.318 0 0 0-3.1-6Zm-9.683 15.767h-7.767A1.16 1.16 0 0 1 14.95 25.5a1.17 1.17 0 0 1 1.166-1.167h7.75c.634 0 1.167.534 1.167 1.167 0 .65-.517 1.167-1.15 1.167Z" fill="#A5C426"/></svg>