<svg width="20" height="20" viewBox="0 0 20 20" fill="none" xmlns="http://www.w3.org/2000/svg">
<path d="M12.5003 18.9583H7.50033C2.97533 18.9583 1.04199 17.025 1.04199 12.5V7.49996C1.04199 2.97496 2.97533 1.04163 7.50033 1.04163H11.667C12.0087 1.04163 12.292 1.32496 12.292 1.66663C12.292 2.00829 12.0087 2.29163 11.667 2.29163H7.50033C3.65866 2.29163 2.29199 3.65829 2.29199 7.49996V12.5C2.29199 16.3416 3.65866 17.7083 7.50033 17.7083H12.5003C16.342 17.7083 17.7087 16.3416 17.7087 12.5V8.33329C17.7087 7.99163 17.992 7.70829 18.3337 7.70829C18.6753 7.70829 18.9587 7.99163 18.9587 8.33329V12.5C18.9587 17.025 17.0253 18.9583 12.5003 18.9583Z" fill="white"/>
<path d="M18.3337 8.95828H15.0003C12.1503 8.95828 11.042 7.84995 11.042 4.99995V1.66662C11.042 1.41662 11.192 1.18328 11.4253 1.09162C11.6587 0.991617 11.9253 1.04995 12.1087 1.22495L18.7753 7.89162C18.9503 8.06662 19.0087 8.34162 18.9087 8.57495C18.8087 8.80828 18.5837 8.95828 18.3337 8.95828ZM12.292 3.17495V4.99995C12.292 7.14995 12.8503 7.70828 15.0003 7.70828H16.8253L12.292 3.17495Z" fill="white"/>
<path d="M10.833 11.4584H5.83301C5.49134 11.4584 5.20801 11.175 5.20801 10.8334C5.20801 10.4917 5.49134 10.2084 5.83301 10.2084H10.833C11.1747 10.2084 11.458 10.4917 11.458 10.8334C11.458 11.175 11.1747 11.4584 10.833 11.4584Z" fill="white"/>
<path d="M9.16634 14.7916H5.83301C5.49134 14.7916 5.20801 14.5083 5.20801 14.1666C5.20801 13.825 5.49134 13.5416 5.83301 13.5416H9.16634C9.50801 13.5416 9.79134 13.825 9.79134 14.1666C9.79134 14.5083 9.50801 14.7916 9.16634 14.7916Z" fill="white"/>
</svg>
