<svg width="40" height="40" viewBox="0 0 40 40" fill="none" xmlns="http://www.w3.org/2000/svg">
<path opacity="0.4" d="M26.2005 3.33337H13.8005C13.1671 3.33337 12.6338 3.86671 12.6338 4.50004C12.6338 5.13337 13.1671 5.66671 13.8005 5.66671H19.2338L21.5671 8.76671C22.0838 9.45004 22.1505 9.55004 23.1171 9.55004H29.3171C29.9505 9.55004 30.5671 9.63337 31.1671 9.80004C31.2338 10.1 31.2671 10.4 31.2671 10.7167V11.3C31.2671 11.9334 31.8005 12.4667 32.4338 12.4667C33.0671 12.4667 33.6005 11.9334 33.6005 11.3V10.7C33.5671 6.63337 30.2671 3.33337 26.2005 3.33337Z" fill="#A5C426"/>
<path d="M33.5663 10.9C32.8497 10.3834 32.033 10 31.1497 9.78337C30.5663 9.61671 29.933 9.53337 29.2997 9.53337H23.0997C22.133 9.53337 22.0663 9.43337 21.5497 8.75004L19.2163 5.65004C18.133 4.21671 17.283 3.33337 14.5663 3.33337H10.6997C6.63301 3.33337 3.33301 6.63337 3.33301 10.7V29.3C3.33301 33.3667 6.63301 36.6667 10.6997 36.6667H29.2997C33.3663 36.6667 36.6663 33.3667 36.6663 29.3V16.9C36.6663 14.4167 35.4497 12.2334 33.5663 10.9ZM23.883 26.6667H16.1163C15.4663 26.6667 14.9497 26.15 14.9497 25.5C14.9497 24.8667 15.4663 24.3334 16.1163 24.3334H23.8663C24.4997 24.3334 25.033 24.8667 25.033 25.5C25.033 26.15 24.5163 26.6667 23.883 26.6667Z" fill="#A5C426"/>
</svg>
