<svg width="24" height="24" viewBox="0 0 24 24" fill="none" xmlns="http://www.w3.org/2000/svg">
<path d="M6.56598 4.5692C6.56598 5.87757 5.43192 6.93821 4.03299 6.93821C2.63406 6.93821 1.5 5.87757 1.5 4.5692C1.5 3.26084 2.63406 2.2002 4.03299 2.2002C5.43192 2.2002 6.56598 3.26084 6.56598 4.5692Z" fill="#A4C31F"/>
<path d="M1.84639 8.67954H6.17629V21.8002H1.84639V8.67954Z" fill="#A4C31F"/>
<path d="M13.1474 8.67954H8.81753V21.8002H13.1474C13.1474 21.8002 13.1474 17.6696 13.1474 15.087C13.1474 13.5369 13.6767 11.9799 15.7887 11.9799C18.1754 11.9799 18.1611 14.0085 18.1499 15.5801C18.1354 17.6344 18.1701 19.7308 18.1701 21.8002H22.5V14.8754C22.4633 10.4537 21.3111 8.41631 17.5206 8.41631C15.2696 8.41631 13.8742 9.43828 13.1474 10.3629V8.67954Z" fill="#A4C31F"/>
</svg>
