<?xml version="1.0" encoding="utf-8"?>
<!-- Generator: Adobe Illustrator 27.0.1, SVG Export Plug-In . SVG Version: 6.00 Build 0)  -->
<svg version="1.1" id="Layer_1" xmlns="http://www.w3.org/2000/svg" xmlns:xlink="http://www.w3.org/1999/xlink" x="0px" y="0px"
	 viewBox="0 0 1090.68 351.7" style="enable-background:new 0 0 1090.68 351.7;" xml:space="preserve">
<style type="text/css">
	.st0{fill:#1C637F;}
	.st1{fill:#A5C426;}
	.st2{fill:none;}
	.st3{font-family:'PTSerif-Bold';}
	.st4{font-size:32px;}
	.st5{letter-spacing:1;}
	.st6{font-size:20px;}
</style>
<path class="st0" d="M360.91,145.39h-3.11c-0.57,0-1.03-0.46-1.03-1.03v-3.1c0-0.57,0.46-1.03,1.03-1.03h29.52
	c0.57,0,1.03,0.46,1.03,1.03v3.1c0,0.57-0.46,1.03-1.03,1.03h-2.49c-0.69,0-1.19,0.67-0.99,1.33l7.97,26.19
	c0.29,0.96,1.65,0.98,1.97,0.02l10.38-31.99c0.14-0.42,0.53-0.71,0.98-0.71h14.37c0.45,0,0.84,0.29,0.98,0.71l10.56,32.69
	c0.31,0.96,1.66,0.95,1.96-0.01l8.43-26.89c0.21-0.66-0.29-1.34-0.98-1.34h-3.62c-0.57,0-1.03-0.46-1.03-1.03v-3.1
	c0-0.57,0.46-1.03,1.03-1.03h17.08c0.57,0,1.03,0.46,1.03,1.03v3.1c0,0.57-0.46,1.03-1.03,1.03h-3.12c-0.45,0-0.85,0.29-0.98,0.73
	l-14.77,48c-0.13,0.43-0.53,0.73-0.98,0.73h-17.13c-0.45,0-0.85-0.29-0.98-0.73l-9.13-29.49c-0.3-0.96-1.65-0.97-1.96-0.02
	l-9.72,29.53c-0.14,0.42-0.53,0.71-0.98,0.71h-16.98c-0.46,0-0.86-0.3-0.99-0.74l-14.29-47.98
	C361.77,145.69,361.37,145.39,360.91,145.39z"/>
<path class="st0" d="M570.5,190.34h2.1c0.61,0,1.1-0.49,1.1-1.1v-60.77c0-0.61-0.49-1.1-1.1-1.1h-2.1c-0.61,0-1.1-0.49-1.1-1.1
	v-2.96c0-0.61,0.49-1.1,1.1-1.1h21.14c0.61,0,1.1,0.49,1.1,1.1v65.93c0,0.61,0.49,1.1,1.1,1.1h2.1c0.61,0,1.1,0.49,1.1,1.1v2.96
	c0,0.61-0.49,1.1-1.1,1.1H570.5c-0.61,0-1.1-0.49-1.1-1.1v-2.96C569.4,190.83,569.89,190.34,570.5,190.34z"/>
<path class="st0" d="M668.37,152.64c0-3.74-1.33-5.17-4.86-5.17c-3.53,0-5.01,1.54-5.01,5.17v36.61c0,0.6,0.49,1.09,1.09,1.09h2.24
	c0.6,0,1.09,0.49,1.09,1.09v2.99c0,0.6-0.49,1.09-1.09,1.09H635.6c-0.6,0-1.09-0.49-1.09-1.09v-2.99c0-0.6,0.49-1.09,1.09-1.09h2.24
	c0.6,0,1.09-0.49,1.09-1.09v-60.79c0-0.6-0.49-1.09-1.09-1.09h-2.24c-0.6,0-1.09-0.49-1.09-1.09v-2.99c0-0.6,0.49-1.09,1.09-1.09
	h21.82c0.6,0,1.09,0.49,1.09,1.09v18.64c0,0.79,0.82,1.31,1.54,0.99c5.18-2.32,8.77-3.14,13.34-3.14c9.86,0,15.61,4.5,15.61,12.2
	v37.26c0,0.6,0.49,1.09,1.09,1.09h2.24c0.6,0,1.09,0.49,1.09,1.09v2.99c0,0.6-0.49,1.09-1.09,1.09h-22.85
	c-0.6,0-1.09-0.49-1.09-1.09V152.64z"/>
<path class="st1" d="M721.37,123.89v15.89c0,0.61,0.56,1.1,1.25,1.1h2.37c0.69,0,1.25,0.49,1.25,1.1v4.39c0,0.61-0.56,1.1-1.25,1.1
	h-2.37c-0.69,0-1.25,0.49-1.25,1.1v38.24c0,2.97,0.72,3.52,4.59,3.52h1.15v4.06c0,0.61-0.56,1.1-1.25,1.1h-10.22
	c-10.89,0-13.33-2.09-13.33-10.11v-36.81c0-0.61-0.56-1.1-1.25-1.1h-2.23c-0.69,0-1.25-0.49-1.25-1.1v-4.39
	c0-0.61,0.56-1.1,1.25-1.1h2.23c0.69,0,1.25-0.49,1.25-1.1v-9.49c0-0.44,0.29-0.84,0.75-1.01l16.56-6.4
	C720.44,122.56,721.37,123.1,721.37,123.89z"/>
<path class="st1" d="M736.17,190.34h1.93c0.49,0,0.89-0.39,0.89-0.88v-42.53c0-0.49-0.4-0.88-0.89-0.88h-1.93
	c-0.49,0-0.89-0.39-0.89-0.88v-3.4c0-0.49,0.4-0.88,0.89-0.88h18.39c0.49,0,0.89,0.39,0.89,0.88l0,0c0,0.73,0.85,1.13,1.44,0.69
	c2.72-2.02,5.45-2.89,8.71-2.89c6.81,0,12.26,5.94,12.26,12.1c0,4.84-4.26,9.23-9.46,9.23c-4.71,0-8.25-3.4-8.25-7.36
	c0-3.08,1.73-6.49,4.83-8.14c-0.87-0.22-1.24-0.22-1.86-0.22c-5.56,0-7.18,4.05-7.67,11.06c0,0.02,0,0.05,0,0.07v33.15
	c0,0.49,0.4,0.88,0.89,0.88h1.93c0.49,0,0.89,0.39,0.89,0.88v3.4c0,0.49-0.4,0.88-0.89,0.88h-22.11c-0.49,0-0.89-0.39-0.89-0.88
	v-3.4C735.27,190.73,735.67,190.34,736.17,190.34z"/>
<path class="st1" d="M810.19,193.62c0-0.87-0.98-1.41-1.74-0.96c-3.78,2.28-6.5,2.95-11.14,2.95c-9.94,0-17.09-5.49-17.09-13.3
	c0-8.02,4.76-13.19,19.05-17.8c9.52-3.08,10.65-2.31,10.65-8.46v-6.04c0-3.3-2.94-5.71-7-5.71c-0.91,0-1.74,0.08-2.55,0.26
	c-1.09,0.25-1.2,1.73-0.16,2.13c3.42,1.3,5.09,3.44,5.09,6.4c0,4.18-4.34,7.03-10.37,7.03c-6.3,0-11.07-3.41-11.07-8.13
	c0-7.58,9.1-12.53,22.83-12.53c13.31,0,22.27,4.07,22.27,16.92v32.07c0,0.62,0.51,1.12,1.15,1.12h1.91c0.63,0,1.15,0.5,1.15,1.12
	v2.93c0,0.62-0.51,1.12-1.15,1.12h-20.67C810.7,194.73,810.19,194.23,810.19,193.62L810.19,193.62z M800.66,180.01
	c0,7.25,1.68,8.68,5.04,8.68c2.52,0,4.48-1.54,4.48-3.52v-17.36c0-0.7-0.67-1.23-1.38-1.1C800.79,168.25,800.66,172.4,800.66,180.01
	z"/>
<path class="st1" d="M867.72,144.02c-6.81,0-9.93,3.41-9.93,10.55v25.27c-0.08,5.77,5.12,8.85,9.76,8.85
	c5.89,0,9.61-0.25,12.27-7.03c0.27-0.68,1.05-0.99,1.7-0.66l2.49,1.23c0.58,0.29,0.84,0.97,0.6,1.56
	c-3.65,8.97-8.66,12.2-20.01,12.2c-16.46,0-27.39-11.32-27.39-28.13c0-17.03,11.35-28.79,27.82-28.79c10.93,0,20.55,7,20.55,14.8
	c0,8.07-4.55,11.5-11.5,11.5c-5.96,0-10.06-5.01-10.06-9.51c0-4.29,2.29-8.66,7.54-8.66l0,0c1.32,0,1.74-1.81,0.54-2.36
	C870.84,144.27,869.43,144.02,867.72,144.02z"/>
<path class="st1" d="M916.1,173.04c-0.7,0.26-1.17,0.93-1.17,1.68v5.13c0,6.15,4.38,9.97,12.01,8.85c6.32-0.93,8.71-5.21,9.65-6.78
	c0.45-0.74,1.38-1.05,2.18-0.73l3.16,1.25c0.98,0.39,1.43,1.56,0.93,2.49c-4.06,7.66-10.84,11.19-21.41,11.19
	c-17.73,0-28.64-10.55-28.64-27.91c0-17.14,11.37-29.23,27.58-29.23c13.41,0,23.38,7.17,24.2,22.22c0.04,0.77-0.44,1.48-1.17,1.75
	L916.1,173.04z M924.07,163.79c0.7-0.26,1.16-0.93,1.16-1.67v-13.59c0-3.08-1.67-4.62-5.15-4.62c-3.49,0-5.15,1.65-5.15,4.83v15.89
	c0,1.25,1.24,2.11,2.41,1.67L924.07,163.79z"/>
<path class="st0" d="M623.7,123.89v15.89c0,0.61,0.56,1.1,1.25,1.1h2.37c0.69,0,1.25,0.49,1.25,1.1v4.39c0,0.61-0.56,1.1-1.25,1.1
	h-2.37c-0.69,0-1.25,0.49-1.25,1.1v38.24c0,2.97,0.72,3.52,4.59,3.52h1.15v4.06c0,0.61-0.56,1.1-1.25,1.1h-10.22
	c-10.89,0-13.33-2.09-13.33-10.11v-36.81c0-0.61-0.56-1.1-1.25-1.1h-2.23c-0.69,0-1.25-0.49-1.25-1.1v-4.39
	c0-0.61,0.56-1.1,1.25-1.1h2.23c0.69,0,1.25-0.49,1.25-1.1v-9.49c0-0.44,0.29-0.84,0.75-1.01l16.56-6.4
	C622.78,122.56,623.7,123.1,623.7,123.89z"/>
<path class="st0" d="M541.17,193.62c0-0.87-0.98-1.41-1.74-0.96c-3.78,2.28-6.5,2.95-11.14,2.95c-9.94,0-17.09-5.49-17.09-13.3
	c0-8.02,4.76-13.19,19.05-17.8c9.52-3.08,10.65-2.31,10.65-8.46v-6.04c0-3.3-2.94-5.71-7-5.71c-0.91,0-1.74,0.08-2.55,0.26
	c-1.09,0.25-1.2,1.73-0.16,2.13c3.42,1.3,5.09,3.44,5.09,6.4c0,4.18-4.34,7.03-10.37,7.03c-6.3,0-11.06-3.41-11.06-8.13
	c0-7.58,9.1-12.53,22.83-12.53c13.31,0,22.27,4.07,22.27,16.92v32.07c0,0.62,0.51,1.12,1.15,1.12H563c0.63,0,1.15,0.5,1.15,1.12
	v2.93c0,0.62-0.51,1.12-1.15,1.12h-20.67C541.69,194.73,541.17,194.23,541.17,193.62L541.17,193.62z M531.65,180.01
	c0,7.25,1.68,8.68,5.04,8.68c2.52,0,4.48-1.54,4.48-3.52v-17.36c0-0.7-0.67-1.23-1.38-1.1C531.77,168.25,531.65,172.4,531.65,180.01
	z"/>
<path class="st0" d="M478.15,171.75c-0.7,0.26-1.17,0.93-1.17,1.68v5.13c0,6.15,4.38,9.97,12.01,8.85c6.32-0.93,8.71-5.21,9.65-6.78
	c0.45-0.74,1.38-1.05,2.18-0.73l3.16,1.25c0.98,0.39,1.43,1.56,0.93,2.49c-4.06,7.66-10.84,11.19-21.41,11.19
	c-17.73,0-28.64-10.55-28.64-27.91c0-17.14,11.37-29.23,27.58-29.23c13.41,0,23.38,7.17,24.2,22.22c0.04,0.77-0.44,1.48-1.17,1.75
	L478.15,171.75z M486.12,162.51c0.7-0.26,1.16-0.93,1.16-1.67v-13.6c0-3.08-1.67-4.62-5.15-4.62c-3.49,0-5.15,1.65-5.15,4.83v15.89
	c0,1.25,1.24,2.11,2.41,1.67L486.12,162.51z"/>
<circle class="st0" cx="242.14" cy="193.59" r="2.86"/>
<g>
	<g>
		<circle class="st0" cx="78.76" cy="193.59" r="15.76"/>
		<circle class="st0" cx="84.04" cy="155.82" r="12.47"/>
		<circle class="st0" cx="97.51" cy="124.46" r="12.47"/>
		<circle class="st0" cx="119.4" cy="98.79" r="11.73"/>
		<circle class="st0" cx="148.33" cy="78.01" r="11.73"/>
		<circle class="st0" cx="180.18" cy="62.42" r="11.73"/>
		<circle class="st0" cx="214.96" cy="60.42" r="11.73"/>
		<circle class="st0" cx="247" cy="66.28" r="8.54"/>
		<circle class="st0" cx="277.73" cy="78.01" r="8.54"/>
		<circle class="st0" cx="307.32" cy="98.67" r="9.66"/>
		<circle class="st0" cx="329.82" cy="128.78" r="9.66"/>
		<circle class="st0" cx="342.34" cy="159.21" r="8.25"/>
		<circle class="st0" cx="344.09" cy="193.59" r="8.25"/>
	</g>
	<circle class="st0" cx="212.61" cy="276.76" r="9.62"/>
	<circle class="st0" cx="191.55" cy="272.53" r="7.61"/>
	<circle class="st0" cx="172.4" cy="265.31" r="7.61"/>
	<circle class="st0" cx="154.73" cy="251.94" r="7.16"/>
	<circle class="st0" cx="142.04" cy="234.28" r="7.16"/>
	<circle class="st0" cx="132.52" cy="214.83" r="7.16"/>
	<circle class="st0" cx="131.3" cy="193.59" r="7.16"/>
	<circle class="st0" cx="134.88" cy="174.03" r="5.21"/>
	<circle class="st0" cx="142.04" cy="155.26" r="5.21"/>
	<circle class="st0" cx="154.66" cy="137.2" r="5.9"/>
	<circle class="st0" cx="173.04" cy="123.46" r="5.9"/>
	<circle class="st0" cx="191.62" cy="115.81" r="5.03"/>
	<circle class="st0" cx="212.61" cy="114.75" r="5.03"/>
	<g>
		<circle class="st0" cx="264.31" cy="190.69" r="6.21"/>
		<circle class="st0" cx="261.8" cy="205.51" r="4.91"/>
		<circle class="st0" cx="256.14" cy="217.71" r="4.91"/>
		<circle class="st0" cx="247.23" cy="227.57" r="4.62"/>
		<circle class="st0" cx="237.28" cy="236.96" r="4.62"/>
		<circle class="st0" cx="223.87" cy="241.21" r="4.62"/>
		<circle class="st0" cx="212.15" cy="242.59" r="4.62"/>
		<circle class="st0" cx="200.6" cy="240.93" r="3.37"/>
		<circle class="st0" cx="188.63" cy="236.96" r="3.37"/>
		<circle class="st0" cx="178.94" cy="227.57" r="3.81"/>
		<circle class="st0" cx="170.66" cy="220.23" r="3.81"/>
		<circle class="st0" cx="166.07" cy="208.1" r="3.25"/>
		<circle class="st0" cx="165.77" cy="194.54" r="3.25"/>
	</g>
	<circle class="st0" cx="223.83" cy="166.05" r="3.84"/>
	<circle class="st0" cx="213.54" cy="163.92" r="3.04"/>
	<circle class="st0" cx="232.05" cy="174.03" r="3.04"/>
	<circle class="st0" cx="238.11" cy="183.23" r="2.86"/>
	<circle class="st0" cx="207.89" cy="221.32" r="2.44"/>
	<circle class="st0" cx="216.58" cy="221.32" r="2.44"/>
	<circle class="st0" cx="238.11" cy="204.85" r="3.04"/>
	<circle class="st0" cx="232.05" cy="213.98" r="3.04"/>
	<circle class="st0" cx="225.47" cy="220.23" r="3.04"/>
	<circle class="st0" cx="228.5" cy="192.88" r="3.04"/>
	<circle class="st0" cx="225.46" cy="183.23" r="3.04"/>
	<circle class="st0" cx="217.65" cy="179.24" r="3.04"/>
	<circle class="st0" cx="209.21" cy="181.75" r="3.04"/>
	<circle class="st0" cx="208.33" cy="189.81" r="2.16"/>
	<g>
		<g>
			<g>
				<g>
					<circle class="st1" cx="138.61" cy="269.11" r="11.35"/>
					<circle class="st1" cx="119.67" cy="245.9" r="9.69"/>
					<circle class="st1" cx="111.74" cy="222.25" r="8.27"/>
					<circle class="st1" cx="108.98" cy="194.16" r="8.84"/>
					<circle class="st1" cx="112.31" cy="167.46" r="8.84"/>
					<circle class="st1" cx="123.77" cy="141.76" r="8.84"/>
					<circle class="st1" cx="138.61" cy="119.11" r="8.84"/>
					<circle class="st1" cx="160.06" cy="104.55" r="8.84"/>
					<circle class="st1" cx="185.49" cy="95.71" r="8.84"/>
					<circle class="st1" cx="212.07" cy="91.28" r="8.84"/>
					<circle class="st1" cx="240.9" cy="92.61" r="8.84"/>
					<circle class="st1" cx="266.89" cy="101.45" r="8.84"/>
					<circle class="st1" cx="286.57" cy="119.11" r="8.84"/>
				</g>
			</g>
			<g>
				<g>
					<circle class="st1" cx="258.68" cy="239.21" r="6.84"/>
					<circle class="st1" cx="244.69" cy="250.61" r="5.84"/>
					<circle class="st1" cx="230.45" cy="255.39" r="4.98"/>
					<circle class="st1" cx="213.54" cy="257.05" r="5.33"/>
					<circle class="st1" cx="197.46" cy="255.05" r="5.33"/>
					<circle class="st1" cx="181.98" cy="248.14" r="5.33"/>
					<circle class="st1" cx="168.34" cy="239.21" r="5.33"/>
					<circle class="st1" cx="159.57" cy="226.29" r="5.33"/>
					<circle class="st1" cx="154.25" cy="210.98" r="5.33"/>
					<circle class="st1" cx="151.58" cy="194.97" r="5.33"/>
					<circle class="st1" cx="152.38" cy="177.61" r="5.33"/>
					<circle class="st1" cx="157.71" cy="161.95" r="5.33"/>
					<circle class="st1" cx="168.34" cy="150.1" r="5.33"/>
				</g>
			</g>
			<circle class="st1" cx="241.73" cy="165.72" r="4.45"/>
			<circle class="st1" cx="248.91" cy="176.63" r="4.12"/>
			<circle class="st1" cx="251.23" cy="189.64" r="3.24"/>
			<circle class="st1" cx="250.53" cy="201.11" r="3.47"/>
			<circle class="st1" cx="244.78" cy="212.79" r="3.47"/>
			<circle class="st1" cx="238.11" cy="221.99" r="3.47"/>
			<circle class="st1" cx="229.36" cy="228.94" r="3.47"/>
			<circle class="st1" cx="218.81" cy="232.41" r="3.47"/>
			<circle class="st1" cx="206.25" cy="232.41" r="3.47"/>
			<circle class="st1" cx="194.33" cy="228.2" r="3.47"/>
			<circle class="st1" cx="186.59" cy="220.81" r="3.47"/>
			<circle class="st1" cx="202.78" cy="194.97" r="2.29"/>
			<circle class="st1" cx="201.01" cy="186.43" r="2.29"/>
			<circle class="st1" cx="202.31" cy="177.83" r="2.29"/>
			<circle class="st1" cx="207.89" cy="170.99" r="2.29"/>
			<circle class="st1" cx="215.83" cy="171.74" r="2.29"/>
		</g>
	</g>
</g>
<rect x="294.1" y="223.23" class="st2" width="802.95" height="110.16"/>
<text transform="matrix(1 0 0 1 294.0961 247.2911)" class="st0 st3 st4 st5">Retirement &amp; Financial Planning Software</text>
<g>
	<text transform="matrix(1 0 0 1 938.9745 140.2268)" class="st1 st3 st6 st5">TM</text>
</g>
</svg>
