<svg width="20" height="21" viewBox="0 0 20 21" fill="none" xmlns="http://www.w3.org/2000/svg">
<path d="M14.542 19.4583C13.6003 19.4583 12.6087 19.2333 11.5837 18.8C10.5837 18.375 9.57533 17.7916 8.59199 17.0833C7.61699 16.3666 6.67533 15.5666 5.78366 14.6916C4.90033 13.8 4.10033 12.8583 3.39199 11.8916C2.67533 10.8916 2.10033 9.89163 1.69199 8.92496C1.25866 7.89163 1.04199 6.89163 1.04199 5.94996C1.04199 5.29996 1.15866 4.68329 1.38366 4.10829C1.61699 3.51663 1.99199 2.96663 2.50033 2.49163C3.14199 1.85829 3.87533 1.54163 4.65866 1.54163C4.98366 1.54163 5.31699 1.61663 5.60033 1.74996C5.92533 1.89996 6.20033 2.12496 6.40033 2.42496L8.33366 5.14996C8.50866 5.39163 8.64199 5.62496 8.73366 5.85829C8.84199 6.10829 8.90033 6.35829 8.90033 6.59996C8.90033 6.91663 8.80866 7.22496 8.63366 7.51663C8.50866 7.74163 8.31699 7.98329 8.07533 8.22496L7.50866 8.81663C7.51699 8.84163 7.52533 8.85829 7.53366 8.87496C7.63366 9.04996 7.83366 9.34996 8.21699 9.79996C8.62533 10.2666 9.00866 10.6916 9.39199 11.0833C9.88366 11.5666 10.292 11.95 10.6753 12.2666C11.1503 12.6666 11.4587 12.8666 11.642 12.9583L11.6253 13L12.2337 12.4C12.492 12.1416 12.742 11.95 12.9837 11.825C13.442 11.5416 14.0253 11.4916 14.6087 11.7333C14.8253 11.825 15.0587 11.95 15.3087 12.125L18.0753 14.0916C18.3837 14.3 18.6087 14.5666 18.742 14.8833C18.867 15.2 18.9253 15.4916 18.9253 15.7833C18.9253 16.1833 18.8337 16.5833 18.6587 16.9583C18.4837 17.3333 18.267 17.6583 17.992 17.9583C17.517 18.4833 17.0003 18.8583 16.4003 19.1C15.8253 19.3333 15.2003 19.4583 14.542 19.4583ZM4.65866 2.79163C4.20033 2.79163 3.77533 2.99163 3.36699 3.39163C2.98366 3.74996 2.71699 4.14163 2.55033 4.56663C2.37533 4.99996 2.29199 5.45829 2.29199 5.94996C2.29199 6.72496 2.47533 7.56663 2.84199 8.43329C3.21699 9.31663 3.74199 10.2333 4.40866 11.15C5.07533 12.0666 5.83366 12.9583 6.66699 13.8C7.50033 14.625 8.40033 15.3916 9.32533 16.0666C10.2253 16.725 11.1503 17.2583 12.067 17.6416C13.492 18.25 14.8253 18.3916 15.9253 17.9333C16.3503 17.7583 16.7253 17.4916 17.067 17.1083C17.2587 16.9 17.4087 16.675 17.5337 16.4083C17.6337 16.2 17.6837 15.9833 17.6837 15.7666C17.6837 15.6333 17.6587 15.5 17.592 15.35C17.567 15.3 17.517 15.2083 17.3587 15.1L14.592 13.1333C14.4253 13.0166 14.2753 12.9333 14.1337 12.875C13.9503 12.8 13.8753 12.725 13.592 12.9C13.4253 12.9833 13.2753 13.1083 13.1087 13.275L12.4753 13.9C12.1503 14.2166 11.6503 14.2916 11.267 14.15L11.042 14.05C10.7003 13.8666 10.3003 13.5833 9.85866 13.2083C9.45866 12.8666 9.02533 12.4666 8.50033 11.95C8.09199 11.5333 7.68366 11.0916 7.25866 10.6C6.86699 10.1416 6.58366 9.74996 6.40866 9.42496L6.30866 9.17496C6.25866 8.98329 6.24199 8.87496 6.24199 8.75829C6.24199 8.45829 6.35033 8.19163 6.55866 7.98329L7.18366 7.33329C7.35033 7.16663 7.47533 7.00829 7.55866 6.86663C7.62533 6.75829 7.65033 6.66663 7.65033 6.58329C7.65033 6.51663 7.62533 6.41663 7.58366 6.31663C7.52533 6.18329 7.43366 6.03329 7.31699 5.87496L5.38366 3.14163C5.30033 3.02496 5.20033 2.94163 5.07533 2.88329C4.94199 2.82496 4.80033 2.79163 4.65866 2.79163ZM11.6253 13.0083L11.492 13.575L11.717 12.9916C11.6753 12.9833 11.642 12.9916 11.6253 13.0083Z" fill="white"/>
</svg>
