<svg width="32" height="32" viewBox="0 0 32 32" fill="none" xmlns="http://www.w3.org/2000/svg">
<path d="M14.3356 22.4805V25.1872C14.3356 27.4805 12.2023 29.3338 9.5756 29.3338C6.94894 29.3338 4.80225 27.4805 4.80225 25.1872V22.4805C4.80225 24.7738 6.9356 26.4005 9.5756 26.4005C12.2023 26.4005 14.3356 24.7605 14.3356 22.4805Z" stroke="#1E6080" stroke-width="1.5" stroke-linecap="round" stroke-linejoin="round"/>
<path d="M14.3333 18.8133C14.3333 19.48 14.1466 20.0933 13.8266 20.6266C13.0399 21.9199 11.4266 22.7333 9.5599 22.7333C7.69323 22.7333 6.07988 21.9066 5.29321 20.6266C4.97321 20.0933 4.78662 19.48 4.78662 18.8133C4.78662 17.6666 5.31993 16.64 6.17326 15.8933C7.03993 15.1333 8.22655 14.68 9.54655 14.68C10.8665 14.68 12.0533 15.1466 12.9199 15.8933C13.7999 16.6266 14.3333 17.6666 14.3333 18.8133Z" stroke="#1E6080" stroke-width="1.5" stroke-linecap="round" stroke-linejoin="round"/>
<path d="M14.3356 18.8133V22.48C14.3356 24.7733 12.2023 26.4 9.5756 26.4C6.94894 26.4 4.80225 24.76 4.80225 22.48V18.8133C4.80225 16.52 6.9356 14.6667 9.5756 14.6667C10.8956 14.6667 12.0823 15.1333 12.949 15.88C13.8023 16.6267 14.3356 17.6667 14.3356 18.8133Z" stroke="#1E6080" stroke-width="1.5" stroke-linecap="round" stroke-linejoin="round"/>
<path d="M29.3335 14.6266V17.3734C29.3335 18.1067 28.7468 18.7066 28.0001 18.7333H25.3868C23.9468 18.7333 22.6268 17.68 22.5068 16.24C22.4268 15.4 22.7468 14.6133 23.3068 14.0666C23.8001 13.56 24.4801 13.2667 25.2268 13.2667H28.0001C28.7468 13.2933 29.3335 13.8933 29.3335 14.6266Z" stroke="#1E6080" stroke-width="1.5" stroke-linecap="round" stroke-linejoin="round"/>
<path d="M2.6665 14V11.3334C2.6665 7.70669 4.85317 5.17335 8.25317 4.74668C8.59984 4.69335 8.95984 4.66669 9.33317 4.66669H21.3332C21.6798 4.66669 22.0132 4.68 22.3332 4.73334C25.7732 5.13334 27.9998 7.68002 27.9998 11.3334V13.2667H25.2265C24.4798 13.2667 23.7998 13.56 23.3065 14.0667C22.7465 14.6133 22.4265 15.4 22.5065 16.24C22.6265 17.68 23.9465 18.7333 25.3865 18.7333H27.9998V20.6667C27.9998 24.6667 25.3332 27.3334 21.3332 27.3334H17.9998" stroke="#1E6080" stroke-width="1.5" stroke-linecap="round" stroke-linejoin="round"/>
</svg>
