<svg width="24" height="18" viewBox="0 0 24 18" fill="none" xmlns="http://www.w3.org/2000/svg">
<path d="M23.3301 3.09375C23.1082 1.85669 22.0511 0.955811 20.8244 0.674561C18.9886 0.28125 15.5911 0 11.9152 0C8.24144 0 4.78956 0.28125 2.9516 0.674561C1.72703 0.955811 0.667754 1.79956 0.445894 3.09375C0.22186 4.5 0 6.46875 0 9C0 11.5312 0.22186 13.5 0.500272 14.9062C0.724307 16.1433 1.7814 17.0442 3.00598 17.3254C4.95487 17.7188 8.29581 18 11.9717 18C15.6476 18 18.9886 17.7188 20.9375 17.3254C22.162 17.0442 23.2191 16.2004 23.4432 14.9062C23.665 13.5 23.9434 11.4741 24 9C23.8869 6.46875 23.6085 4.5 23.3301 3.09375ZM8.90919 12.9375V5.0625L15.702 9L8.90919 12.9375Z" fill="#1C637F"/>
</svg>
